# xmcd CD database file
#
# Track frame offsets:
#	150
#	22182
#	45082
#	68085
#	84407
#	107777
#	122952
#	142007
#	163832
#	185305
#
# Disc length: 2738 seconds
#
# Revision: 0
# Processed by: cddbd v1.5PL3 Copyright (c) Steve Scherf et al.
# Submitted via: CDex 1.50beta9
#
DISCID=850ab00a
DTITLE=笠原弘子 - Re*vuelta
DYEAR=2003
DGENRE=JPop
TTITLE0=少しずつ愛して
TTITLE1=金のサカナ
TTITLE2=恋の新境地
TTITLE3=町人風情
TTITLE4=目の前の真実
TTITLE5=ロンリコ
TTITLE6=昼間の私に会いにこないで
TTITLE7=アジアの頂点
TTITLE8=春の雪
TTITLE9=NECO
EXTD=YEAR: 2003
EXTT0=
EXTT1=
EXTT2=
EXTT3=
EXTT4=
EXTT5=
EXTT6=
EXTT7=
EXTT8=
EXTT9=
PLAYORDER=
